HIERARCHY
ROOT Hips
{
    OFFSET 0.000000 0.000000 0.000000
    CHANNELS 6 Xposition Yposition Zposition Zrotation Yrotation Xrotation
    JOINT LeftUpLeg
    {
        OFFSET 9.223232 -10.401557 3.955652
        CHANNELS 3 Zrotation Yrotation Xrotation
        JOINT LeftLeg
        {
            OFFSET 14.153672 -38.886868 0.000000
            CHANNELS 3 Zrotation Yrotation Xrotation
            JOINT LeftFoot
            {
                OFFSET 15.073878 -41.415165 0.000000
                CHANNELS 3 Zrotation Yrotation Xrotation
                JOINT LeftToeBase
                {
                    OFFSET 0.986020 -2.709143 10.674577
                    CHANNELS 3 Zrotation Yrotation Xrotation
                    End Site
                    {
                        OFFSET 0.000000 0.000000 0.000000
                    }
                }
            }
        }
    }
    JOINT RightUpLeg
    {
        OFFSET -8.598510 -10.401613 3.955652
        CHANNELS 3 Zrotation Yrotation Xrotation
        JOINT RightLeg
        {
            OFFSET -13.805581 -37.930595 0.000000
            CHANNELS 3 Zrotation Yrotation Xrotation
            JOINT RightFoot
            {
                OFFSET -15.566465 -42.768635 0.000000
                CHANNELS 3 Zrotation Yrotation Xrotation
                JOINT RightToeBase
                {
                    OFFSET -0.850724 -2.337403 11.319788
                    CHANNELS 3 Zrotation Yrotation Xrotation
                    End Site
                    {
                        OFFSET 0.000000 0.000000 0.000000
                    }
                }
            }
        }
    }
    JOINT Spine
    {
        OFFSET 0.026472 11.647332 -2.326452
        CHANNELS 3 Zrotation Yrotation Xrotation
        JOINT Spine1
        {
            OFFSET 0.108768 11.974256 -0.101204
            CHANNELS 3 Zrotation Yrotation Xrotation
            JOINT Neck1
            {
                OFFSET -0.658701 9.927032 1.608823
                CHANNELS 3 Zrotation Yrotation Xrotation
                JOINT Head
                {
                    OFFSET 0.557159 10.117982 -1.890084
                    CHANNELS 3 Zrotation Yrotation Xrotation
                    End Site
                    {
                        OFFSET 0.000000 0.000000 0.000000
                    }
                }
            }
            JOINT LeftShoulder
            {
                OFFSET 0.000000 0.000000 0.000000
                CHANNELS 3 Zrotation Yrotation Xrotation
                JOINT LeftArm
                {
                    OFFSET 18.647236 6.758323 -1.504515
                    CHANNELS 3 Zrotation Yrotation Xrotation
                    JOINT LeftForeArm
                    {
                        OFFSET 32.021812 -0.000000 -0.000000
                        CHANNELS 3 Zrotation Yrotation Xrotation
                        JOINT LeftHand
                        {
                            OFFSET 19.792652 -0.000000 0.000000
                            CHANNELS 3 Zrotation Yrotation Xrotation
                            End Site
                            {
                                OFFSET 0.000000 0.000000 0.000000
                            }
                        }
                    }
                }
            }
            JOINT RightShoulder
            {
                OFFSET 0.000000 0.000000 0.000000
                CHANNELS 3 Zrotation Yrotation Xrotation
                JOINT RightArm
                {
                    OFFSET -19.347084 6.820524 -2.428052
                    CHANNELS 3 Zrotation Yrotation Xrotation
                    JOINT RightForeArm
                    {
                        OFFSET -32.363182 -0.000000 -0.000000
                        CHANNELS 3 Zrotation Yrotation Xrotation
                        JOINT RightHand
                        {
                            OFFSET -19.915251 -0.000000 0.000000
                            CHANNELS 3 Zrotation Yrotation Xrotation
                            End Site
                            {
                                OFFSET 0.000000 0.000000 0.000000
                            }
                        }
                    }
                }
            }
        }
    }
}
MOTION
Frames: 13
Frame Time: 0.016667
55.608067 94.287445 -154.202194 -0.454000 -26.435900 10.956600 -21.327816 -7.693000 -15.909406 3.758999 11.832699 35.142502 2.759701 0.122800 -31.542006 0.008400 -0.590700 -1.623101 14.583410 17.718710 -29.204718 -11.629800 -18.229706 64.810501 -0.720000 -4.424201 -18.237707 -0.313400 -3.598702 9.950399 -7.934762 2.808183 24.353655 3.499501 0.513300 -8.141497 -0.210622 -2.354494 2.798659 3.218100 -1.024800 11.464504 0.000000 0.000000 0.000000 -81.754181 -22.454111 -3.209400 9.699400 -16.268105 -1.389600 0.000000 0.000000 13.532804 0.000000 0.000000 0.000000 88.159302 -1.365399 13.217402 -15.726207 25.148001 -3.528801 0.000000 0.000000 14.507901 
55.315121 94.069000 -152.464279 -0.148000 -26.653307 11.015306 -22.236389 -8.026298 -14.770303 3.754401 11.826300 35.120102 2.891501 0.852200 -32.528294 0.038800 -1.271800 -3.496900 14.125699 18.352402 -30.971315 -11.368810 -18.110905 63.973732 -0.790600 -4.812603 -19.216208 -0.389100 -4.005405 11.091805 -8.477170 2.254888 24.505514 3.968702 0.362300 -8.308700 -0.409710 -1.986912 2.749329 3.194001 -0.918200 11.417000 0.000000 0.000000 0.000000 -81.334122 -22.902708 -0.633397 10.467500 -17.467493 -1.612400 0.000000 0.000000 11.428905 0.000000 0.000000 0.000000 88.177597 -1.478100 12.248508 -15.351299 24.633209 -3.371001 0.000000 0.000000 15.028901 
54.977020 93.825165 -150.588074 -0.178199 -27.127304 10.901901 -22.984501 -7.699105 -13.242404 3.696500 11.745207 34.836521 2.960201 1.840700 -33.254513 0.077200 -1.792300 -4.931900 14.044600 19.083200 -32.204899 -11.004600 -17.937401 62.796692 -0.991600 -3.596600 -20.433798 -0.339000 -3.741402 10.350304 -8.659120 1.805430 24.853781 4.084603 0.212600 -8.016800 -0.404421 -1.501148 2.388519 3.113901 -0.777200 11.601800 0.000000 0.000000 0.000000 -80.415718 -23.838411 1.767000 11.034801 -18.341511 -1.786801 0.000000 0.000000 9.128798 0.000000 0.000000 0.000000 88.383400 -1.336300 11.145900 -15.085999 24.265804 -3.261201 0.000000 0.000000 15.685700 
54.588120 93.680107 -148.654312 -0.049699 -27.562700 10.962300 -23.846916 -7.721903 -11.721108 3.596400 11.603000 34.341599 3.001702 2.746402 -33.821121 0.067600 -1.677400 -4.615103 13.642404 19.855909 -33.622398 -10.581205 -17.724003 61.413700 -1.128100 -3.066702 -21.385008 -0.298000 -3.510200 9.702700 -9.001171 1.447851 24.930990 4.322500 0.101700 -7.917104 -0.355655 -1.176813 2.161678 2.881701 -0.665100 11.745808 0.000000 0.000000 0.000000 -79.654831 -24.507198 3.910600 11.506306 -19.060101 -1.938000 0.000000 0.000000 7.427700 0.000000 0.000000 0.000000 88.485802 -1.538801 10.483506 -15.038501 24.199699 -3.241700 0.000000 0.000000 15.470001 
54.133183 93.535606 -146.824966 0.105299 -28.076807 11.204301 -24.569700 -6.660800 -10.729900 3.463098 11.409397 33.673294 2.947800 3.276801 -33.735401 0.082000 -1.846700 -5.082099 12.985800 21.079798 -35.225605 -10.111499 -17.472095 59.860401 -1.321200 -2.112201 -22.568001 -0.420000 -4.159702 11.526304 -9.428877 1.493016 25.156630 4.564402 0.088700 -7.729204 -0.164691 -1.229521 1.503828 3.037801 -0.677700 11.251804 0.000000 0.000000 0.000000 -79.032410 -25.634501 5.962903 12.538004 -20.606611 -2.288101 0.000000 0.000000 5.412002 0.000000 0.000000 0.000000 88.753906 -1.321401 9.135599 -14.965004 24.097307 -3.211601 0.000000 0.000000 15.687200 
53.672035 93.428932 -144.910950 0.211301 -28.291500 11.362500 -25.228315 -6.414903 -9.297502 3.311899 11.183698 32.901802 2.907901 3.742599 -33.707901 0.045600 -1.377500 -3.788002 12.412602 21.992605 -36.617298 -9.554695 -17.151703 57.989399 -1.415000 -1.992100 -23.270201 -0.348500 -3.793102 10.495200 -9.698878 0.941333 25.339806 4.847100 -0.066000 -7.763904 -0.229640 -1.008033 1.611526 3.100501 -0.613900 10.978100 0.000000 0.000000 0.000000 -78.229027 -26.385105 7.075105 13.274401 -21.688000 -2.553802 0.000000 0.000000 4.579302 0.000000 0.000000 0.000000 88.800797 -1.622299 8.518695 -15.020101 24.174101 -3.234198 0.000000 0.000000 15.229400 
53.170815 93.298546 -142.917343 0.325001 -28.468004 11.403504 -25.906212 -5.997104 -7.525900 3.118799 10.884900 31.892702 2.862399 3.906701 -33.525822 0.081300 -1.839401 -5.061900 11.726896 23.036398 -37.683884 -9.005199 -16.811104 56.108196 -1.540902 -1.612500 -24.088507 -0.405800 -4.089601 11.328813 -9.883551 0.347491 25.456638 5.080602 -0.235900 -7.643297 -0.332030 -0.681995 1.793843 3.096402 -0.519600 10.875800 0.000000 0.000000 0.000000 -77.220703 -27.300798 8.027100 13.785203 -22.426800 -2.745600 0.000000 0.000000 4.241100 0.000000 0.000000 0.000000 88.787399 -1.803300 7.842101 -14.922404 24.037909 -3.194300 0.000000 0.000000 14.948400 
52.607502 93.295723 -141.008972 0.421300 -28.453199 11.697900 -26.347799 -5.620104 -6.101302 2.916100 10.557908 30.802999 2.733500 3.975400 -32.834213 0.110700 -2.144801 -5.906001 10.944901 23.894104 -39.039104 -8.427300 -16.424700 54.087395 -1.589201 -1.864401 -24.555908 -0.326100 -3.670300 10.151003 -10.123149 -0.231396 25.639883 5.212199 -0.411500 -7.569997 0.030107 -0.623683 1.525621 3.205401 -0.503100 10.605607 0.000000 0.000000 0.000000 -76.209198 -28.136797 9.079899 14.206904 -23.029810 -2.908602 0.000000 0.000000 3.958798 0.000000 0.000000 0.000000 89.152504 -1.809300 6.740504 -14.906301 24.015408 -3.187700 0.000000 0.000000 14.733801 
52.005810 93.269760 -139.038498 0.603200 -28.696613 11.853906 -26.954210 -5.272503 -4.606202 2.728000 10.241204 29.761200 2.563802 4.808101 -32.238705 0.253500 -3.239801 -8.947000 9.945499 25.048292 -40.180500 -7.841399 -16.001305 51.989311 -1.585600 -2.202699 -24.671499 -0.394500 -4.033102 11.169800 -10.510547 -0.835714 25.592356 5.649402 -0.569900 -7.628003 -0.251653 -0.481159 1.987550 2.641500 -0.455300 12.079600 0.000000 0.000000 0.000000 -75.554619 -28.407999 9.621203 14.467505 -23.399012 -3.011302 0.000000 0.000000 4.209000 0.000000 0.000000 0.000000 88.938782 -2.297399 6.701299 -14.923101 24.038900 -3.194499 0.000000 0.000000 13.917800 
51.368553 93.289513 -136.941055 0.545000 -28.844702 12.394900 -27.357401 -5.344803 -3.065701 2.505500 9.848007 28.485804 2.347700 5.657200 -31.381807 0.317600 -3.622802 -10.017802 9.103698 25.850008 -41.574818 -7.305108 -15.583611 50.019226 -1.532501 -2.437601 -24.374607 -0.352800 -3.816200 10.560206 -10.474039 -1.405216 25.304251 5.845704 -0.707000 -7.560910 -0.392892 -0.257950 2.313074 3.405502 -0.408800 10.136506 0.000000 0.000000 0.000000 -74.865097 -28.891598 9.748205 14.986405 -24.127197 -3.220401 0.000000 0.000000 2.261700 0.000000 0.000000 0.000000 88.858612 -2.665700 6.334499 -14.984900 24.125103 -3.219800 0.000000 0.000000 12.797200 
50.682201 93.288383 -134.670868 1.179900 -28.294510 11.972496 -28.149099 -5.096702 -0.753600 2.265899 9.399204 27.052200 2.112900 5.741497 -29.986700 0.395600 -4.038300 -11.184400 8.034902 25.765406 -42.133095 -6.862405 -15.215012 48.352119 -1.538801 -2.602501 -24.495502 -0.216500 -2.995200 8.265500 -10.844484 -2.395323 25.963448 6.329902 -0.984000 -7.673900 -0.782693 -0.060618 2.383129 3.409000 -0.368600 10.496700 0.000000 0.000000 0.000000 -74.708138 -29.169512 10.227906 15.362298 -24.648399 -3.375599 0.000000 0.000000 1.647300 0.000000 0.000000 0.000000 88.597000 -2.998600 6.206204 -15.258807 24.505400 -3.332601 0.000000 0.000000 10.741800 
49.978905 93.194130 -132.483093 1.203600 -28.351402 12.518103 -28.491600 -4.732500 0.843700 2.028200 8.924502 25.559416 1.771401 6.650302 -28.274412 0.604100 -4.975200 -13.837806 7.209407 26.141813 -43.616013 -6.522804 -14.916510 47.045616 -1.352400 -2.348800 -22.926716 -0.143600 -2.442000 6.728900 -10.785233 -2.928646 25.657444 6.326302 -1.135701 -7.385100 -0.679850 0.150229 2.161436 3.312900 -0.294200 10.375507 0.000000 0.000000 0.000000 -74.273415 -29.346722 10.917515 15.984106 -25.499010 -3.639102 0.000000 0.000000 1.265000 0.000000 0.000000 0.000000 88.725204 -3.263201 6.432400 -15.623807 25.007910 -3.485400 0.000000 0.000000 8.904800 
49.192078 93.045677 -130.267670 1.404201 -28.724207 12.604404 -28.962997 -3.801900 2.591801 1.817802 8.475909 24.169109 1.446601 7.045203 -26.236013 0.674900 -5.253102 -14.631903 6.562198 26.482801 -44.622902 -6.274603 -14.689208 46.073925 -1.144501 -1.921501 -20.987806 -0.122900 -2.260400 6.225900 -11.164058 -3.082826 25.910118 6.787398 -1.172600 -7.506000 -0.915649 0.256419 2.093751 2.942702 -0.253900 11.101400 0.000000 0.000000 0.000000 -73.799141 -29.619724 11.731408 16.017599 -25.544493 -3.653499 0.000000 0.000000 1.158500 0.000000 0.000000 0.000000 88.492203 -3.715101 7.192803 -16.016500 25.543011 -3.653102 0.000000 0.000000 6.432900 
